<?xml version="1.0" encoding="UTF-8"?>
<svg width="38px" height="36px" viewBox="0 0 38 36" version="1.1" xmlns="http://www.w3.org/2000/svg" xmlns:xlink="http://www.w3.org/1999/xlink">
    <!-- Generator: Sketch 48.1 (47250) - http://www.bohemiancoding.com/sketch -->
    <title>Group Copy 5</title>
    <desc>Created with Sketch.</desc>
    <defs></defs>
    <g id="微信端" stroke="none" stroke-width="1" fill="none" fill-rule="evenodd">
        <g id="Group-Copy-5" transform="translate(1.000000, 1.000000)" stroke="#8D99A6" stroke-width="2">
            <path d="M36,28.6315789 C36,31.5967368 33.5826,34 30.6,34 L5.4,34 C2.4174,34 0,31.5967368 0,28.6315789 L0,5.36842105 C0,2.40326316 2.4174,0 5.4,0 L30.6,0 C33.5826,0 36,2.40326316 36,5.36842105 L36,28.6315789 L36,28.6315789 Z" id="Shape"></path>
            <path d="M15.3,10.2894737 C15.3,12.5128947 13.4865,14.3157895 11.25,14.3157895 C9.0135,14.3157895 7.2,12.5128947 7.2,10.2894737 C7.2,8.06605263 9.0135,6.26315789 11.25,6.26315789 C13.4865,6.26315789 15.3,8.06605263 15.3,10.2894737 L15.3,10.2894737 Z" id="Shape"></path>
            <polyline id="Shape" points="5.4 26.8421053 12.6 19.6842105 18 25.0526316 31.5 11.6315789"></polyline>
        </g>
    </g>
</svg>