<?xml version="1.0" encoding="UTF-8"?>
<svg width="37px" height="38px" viewBox="0 0 37 38" version="1.1" xmlns="http://www.w3.org/2000/svg" xmlns:xlink="http://www.w3.org/1999/xlink">
    <!-- Generator: Sketch 48.1 (47250) - http://www.bohemiancoding.com/sketch -->
    <title>Shape</title>
    <desc>Created with Sketch.</desc>
    <defs></defs>
    <g id="微信端" stroke="none" stroke-width="1" fill="none" fill-rule="evenodd">
        <path d="M29.7186852,23.386 C26.3942187,23.334 23.5669538,25.448 22.5806515,28.393 C22.2890139,29.264 21.2318275,29.616 20.4318492,29.149 C15.6289419,26.346 11.631076,22.351 8.82305111,17.593 C8.80887428,17.57 8.826089,17.539 8.85444266,17.539 C12.6285172,17.539 16.1089288,15.236 17.2785173,11.693 C19.283526,5.622 14.7378269,0 8.87975843,0 C7.26663776,0 5.75680541,0.424 4.45456236,1.17 C1.95336458,2.602 0.221766119,5.174 0.0141768295,8.17 C0,8.36 0,8.565 0,8.77 C0,9.077 0.0141768295,9.369 0.0435431192,9.661 C0.532643737,25.387 13.5560869,38 29.5991948,38 C29.7915946,38 29.9698176,38 30.1622174,37.986 C32.9591034,37.767 35.3266339,36.027 36.392934,33.601 C36.795961,32.667 37.020765,31.637 36.9984871,30.544 C36.9195019,26.696 33.615288,23.446 29.7186852,23.386 L29.7186852,23.386 Z" id="Shape"></path>
    </g>
</svg>
