<?xml version="1.0" encoding="UTF-8"?>
<svg width="44px" height="42px" viewBox="0 0 44 42" version="1.1" xmlns="http://www.w3.org/2000/svg" xmlns:xlink="http://www.w3.org/1999/xlink">
    <!-- Generator: Sketch 48.1 (47250) - http://www.bohemiancoding.com/sketch -->
    <title>nav_icon_home_pressed</title>
    <desc>Created with Sketch.</desc>
    <defs></defs>
    <g id="微信端" stroke="none" stroke-width="1" fill="none" fill-rule="evenodd">
        <g id="nav_icon_home_pressed" transform="translate(1.000000, 1.000000)">
            <path d="M0,20 L18.835,1.121 C19.377,0.578 20.127,0.243 20.956,0.243 C21.784,0.243 22.534,0.578 23.077,1.121 L42,20" id="Shape" stroke="#3C90EF" stroke-width="2" stroke-linecap="round"></path>
            <path d="M37,16 L37,33.5 C37,35.036 36.664,36.821 35.493,37.993 C34.321,39.164 33.036,40 31.5,40 L10.5,40 C8.964,40 7.179,39.164 6.007,37.993 C4.836,36.821 4,35.036 4,33.5 L4,17" id="Shape" stroke="#3C90EF" stroke-width="2" fill="#3C90EF" stroke-linecap="round"></path>
            <path d="M27,40 L15,40 L15,27.5 C15,24.186 17.686,21.5 21,21.5 C24.314,21.5 27,24.186 27,27.5 L27,40 L27,40 Z" id="Shape" stroke="#3C90EF" stroke-width="2" fill="#FFFFFF" stroke-linecap="round"></path>
            <polygon id="Path-6" fill="#3C90EF" points="4 17 20 1 22 1 24 3 37 15 36 17 10 18 5 18"></polygon>
        </g>
    </g>
</svg>