<?xml version="1.0" encoding="UTF-8"?>
<svg width="40px" height="40px" viewBox="0 0 40 40" version="1.1" xmlns="http://www.w3.org/2000/svg" xmlns:xlink="http://www.w3.org/1999/xlink">
    <!-- Generator: Sketch 48.1 (47250) - http://www.bohemiancoding.com/sketch -->
    <title>Group</title>
    <desc>Created with Sketch.</desc>
    <defs></defs>
    <g id="问卷选择" stroke="none" stroke-width="1" fill="none" fill-rule="evenodd" transform="translate(-75.000000, -711.000000)">
        <g id="Group" transform="translate(75.000000, 711.000000)">
            <circle id="Oval" fill="#FFBD7A" cx="20" cy="20" r="20"></circle>
            <path d="M20.172,7 C17.58,7 15.564,7.792 14.124,9.376 C12.684,10.888 12,12.904 12,15.424 L14.844,15.424 C14.844,13.66 15.24,12.292 16.032,11.284 C16.896,10.096 18.228,9.52 20.028,9.52 C21.54,9.52 22.728,9.916 23.556,10.78 C24.348,11.572 24.78,12.688 24.78,14.128 C24.78,15.136 24.42,16.072 23.7,16.972 C23.484,17.26 23.052,17.692 22.476,18.268 C20.532,19.996 19.344,21.364 18.84,22.444 C18.408,23.344 18.192,24.388 18.192,25.576 L18.192,26.404 L21.072,26.404 L21.072,25.576 C21.072,24.604 21.288,23.74 21.756,22.948 C22.116,22.3 22.656,21.652 23.448,20.968 C25.032,19.564 26.004,18.628 26.364,18.196 C27.264,17.008 27.732,15.604 27.732,13.984 C27.732,11.824 27.048,10.132 25.716,8.908 C24.312,7.612 22.476,7 20.172,7 Z M19.632,28.924 C19.02,28.924 18.516,29.104 18.084,29.536 C17.652,29.932 17.472,30.436 17.472,31.048 C17.472,31.66 17.652,32.164 18.084,32.596 C18.516,32.992 19.02,33.208 19.632,33.208 C20.244,33.208 20.748,32.992 21.18,32.596 C21.612,32.2 21.828,31.696 21.828,31.048 C21.828,30.436 21.612,29.932 21.216,29.536 C20.784,29.104 20.244,28.924 19.632,28.924 Z" id="？" fill="#FFFFFF"></path>
        </g>
    </g>
</svg>