<?xml version="1.0" encoding="UTF-8"?>
<svg width="32px" height="40px" viewBox="0 0 32 40" version="1.1" xmlns="http://www.w3.org/2000/svg" xmlns:xlink="http://www.w3.org/1999/xlink">
    <!-- Generator: Sketch 48.1 (47250) - http://www.bohemiancoding.com/sketch -->
    <title>location</title>
    <desc>Created with Sketch.</desc>
    <defs></defs>
    <g id="订单详情" stroke="none" stroke-width="1" fill="none" fill-rule="evenodd" transform="translate(-22.000000, -943.000000)">
        <g id="location" transform="translate(23.000000, 944.000000)" stroke="#384450" stroke-width="2">
            <path d="M27,23.9997635 L26.98,23.9997635 C28.903,20.9997635 30.043,18.2627635 29.999,14.8067635 C29.898,6.88076349 23.344,0.221763489 15.42,0.00576348912 C6.944,-0.226236511 0,6.57576349 0,14.9997635 C0,18.3817635 1.133,20.9997635 3.02,23.9997635 L3,23.9997635 L12.656,36.0697635 C13.858,37.5717635 16.142,37.5717635 17.344,36.0697635 L27,23.9997635 L27,23.9997635 Z" id="Shape"></path>
            <path d="M21,15 C21,18.314 18.314,21 15,21 C11.686,21 9,18.314 9,15 C9,11.686 11.686,9 15,9 C18.314,9 21,11.686 21,15 L21,15 Z" id="Shape"></path>
        </g>
    </g>
</svg>