<?xml version="1.0" encoding="UTF-8"?>
<svg width="82px" height="80px" viewBox="0 0 82 80" version="1.1" xmlns="http://www.w3.org/2000/svg" xmlns:xlink="http://www.w3.org/1999/xlink">
    <!-- Generator: Sketch 48.1 (47250) - http://www.bohemiancoding.com/sketch -->
    <title>6</title>
    <desc>Created with Sketch.</desc>
    <defs></defs>
    <g id="微信端" stroke="none" stroke-width="1" fill="none" fill-rule="evenodd">
        <path d="M79.5566941,6.55911602 C80.7204224,6.55911602 81.6725636,7.51381215 81.6549314,8.68066298 L81.6549314,64.9723757 C81.6549314,73.2640884 74.9370457,80 66.6675223,80 L14.9874091,80 C6.71788574,80 0,73.2640884 0,64.9723757 L0,2.12154696 C0,0.954696133 0.952141286,0 2.11586952,0 L68.2896889,0 C69.4534171,0 70.4055584,0.954696133 70.4055584,2.12154696 L70.4055584,58.8729282 C70.4055584,60.039779 69.4534171,60.9944751 68.2896889,60.9944751 C67.1259607,60.9944751 66.1738194,60.039779 66.1738194,58.8729282 L66.1738194,4.24309392 L4.23173905,4.24309392 L4.23173905,64.9900552 C4.23173905,70.9303867 9.04534222,75.7745856 14.9874091,75.7745856 L66.6851545,75.7745856 C72.6095892,75.7745856 77.4408246,70.9480663 77.4408246,64.9900552 L77.4408246,8.68066298 C77.4408246,7.51381215 78.3929659,6.55911602 79.5566941,6.55911602 Z M58.0629862,16.4773481 L11.9370306,16.4773481 C10.7733023,16.4773481 9.82116104,15.5226519 9.82116104,14.3558011 C9.82116104,13.1889503 10.7733023,12.2342541 11.9370306,12.2342541 L58.0629862,12.2342541 C59.2267144,12.2342541 60.1788557,13.1889503 60.1788557,14.3558011 C60.1788557,15.5226519 59.2267144,16.4773481 58.0629862,16.4773481 Z M58.0629862,55.478453 C59.2267144,55.478453 60.1612235,56.4331492 60.1612235,57.6 C60.1612235,58.7668508 59.2090822,59.721547 58.045354,59.721547 L11.9370306,59.721547 C10.7733023,59.721547 9.82116104,58.7668508 9.82116104,57.6 C9.82116104,56.4331492 10.7733023,55.478453 11.9370306,55.478453 L58.0629862,55.478453 Z M58.0629862,66.3513812 C59.2267144,66.3513812 60.1788557,67.3060773 60.1788557,68.4729282 C60.1788557,69.639779 59.2267144,70.5944751 58.0629862,70.5944751 L19.2544127,70.5944751 C18.0906844,70.5944751 17.1385431,69.639779 17.1385431,68.4729282 C17.1385431,67.3060773 18.0906844,66.3513812 19.2544127,66.3513812 L58.0629862,66.3513812 Z M9.1158712,23.8850829 C9.1158712,22.718232 10.0680125,21.7635359 11.2317407,21.7635359 L34.2065573,21.7635359 C35.3702856,21.7635359 36.3224268,22.718232 36.3224268,23.8850829 L36.3224268,46.8331492 C36.3224268,48 35.3702856,48.9546961 34.2065573,48.9546961 L11.2317407,48.9546961 C10.0680125,48.9546961 9.1158712,48 9.1158712,46.8331492 L9.1158712,23.8850829 Z M13.3476103,26.0066298 L13.3476103,44.7116022 L32.0906878,44.7116022 L32.0906878,26.0066298 L13.3476103,26.0066298 Z M59.1914499,23.8850829 C60.3728104,23.8850829 61.3073195,24.839779 61.3073195,26.0066298 C61.3073195,27.1734807 60.3551782,28.1281768 59.1914499,28.1281768 L43.9748216,28.1281768 C42.8110934,28.1281768 41.8589521,27.1734807 41.8589521,26.0066298 C41.8589521,24.839779 42.8110934,23.8850829 43.9748216,23.8850829 L59.1914499,23.8850829 Z M59.1914499,33.4674033 C60.3728104,33.4674033 61.3073195,34.4220994 61.3073195,35.5889503 C61.3073195,36.7558011 60.3551782,37.7104972 59.1914499,37.7104972 L43.9748216,37.7104972 C42.8110934,37.7104972 41.8589521,36.7558011 41.8589521,35.5889503 C41.8589521,34.4220994 42.8110934,33.4674033 43.9748216,33.4674033 L59.1914499,33.4674033 Z M61.3073195,45.7723757 C61.3073195,46.9392265 60.3728104,47.8939227 59.1914499,47.8939227 L43.9748216,47.8939227 C42.8110934,47.8939227 41.8589521,46.9392265 41.8589521,45.7723757 C41.8589521,44.6055249 42.8110934,43.6508287 43.9748216,43.6508287 L59.1914499,43.6508287 C60.3551782,43.6508287 61.3073195,44.6055249 61.3073195,45.7723757 Z" id="6" fill="#FFFFFF"></path>
    </g>
</svg>