<?xml version="1.0" encoding="UTF-8"?>
<svg width="74px" height="80px" viewBox="0 0 74 80" version="1.1" xmlns="http://www.w3.org/2000/svg" xmlns:xlink="http://www.w3.org/1999/xlink">
    <!-- Generator: Sketch 48.1 (47250) - http://www.bohemiancoding.com/sketch -->
    <title>3</title>
    <desc>Created with Sketch.</desc>
    <defs></defs>
    <g id="微信端" stroke="none" stroke-width="1" fill="none" fill-rule="evenodd">
        <path d="M73.1243515,18.8602786 C73.1243515,18.5563529 73.0572649,18.2524272 72.9230918,17.9653862 C72.6547455,17.3913043 72.1348247,17.0029548 71.5645889,16.8847615 L37.4007577,0.202617138 C36.8472936,-0.067539046 36.1931996,-0.067539046 35.6397355,0.202617138 L1.14047154,17.0367244 C0.469605927,17.3575348 0.0335432805,18.0329253 0,18.7927396 L0,18.8096243 L0,18.8771634 L0,61.1228366 C0,61.8995357 0.436062646,62.6086957 1.14047154,62.9463909 L35.6397355,79.7804981 C35.6565072,79.7804981 35.6565072,79.7804981 35.6732788,79.7973829 C35.7235937,79.8142676 35.7739086,79.8311524 35.8242236,79.8649219 C35.8409952,79.8649219 35.8577668,79.8818067 35.8913101,79.8818067 C35.941625,79.8986914 35.99194,79.9155762 36.0422549,79.932461 C36.0590265,79.932461 36.0757982,79.9493457 36.0925698,79.9493457 C36.1428847,79.9662305 36.2099713,79.9662305 36.2602862,79.9831152 L36.3106011,79.9831152 C36.3776877,79.9831152 36.4615459,80 36.5286324,80 C36.595719,80 36.6795772,80 36.7466638,79.9831152 L36.7969787,79.9831152 C36.8472936,79.9831152 36.9143802,79.9662305 36.9646951,79.9493457 C36.9814667,79.9493457 36.9982384,79.932461 37.01501,79.932461 C37.0653249,79.9155762 37.1156399,79.8986914 37.1659548,79.8818067 C37.1827264,79.8818067 37.1994981,79.8649219 37.2330413,79.8649219 C37.2833563,79.8480371 37.3336712,79.8311524 37.3839861,79.7973829 C37.4007577,79.7973829 37.4007577,79.7973829 37.4175294,79.7804981 L72.0174232,62.8957366 C72.7050605,62.5580414 73.1578947,61.8488814 73.1578947,61.0721824 L73.1578947,18.9109329 C73.1243515,18.8940481 73.1243515,18.8771634 73.1243515,18.8602786 L73.1243515,18.8602786 Z M36.5118608,4.27184466 L66.432467,18.8771634 L55.4134994,24.2634023 L25.4928932,9.65808358 L36.5118608,4.27184466 L36.5118608,4.27184466 Z M36.5118608,33.4824821 L6.59125462,18.8771634 L20.8806921,11.9037569 L50.8012983,26.5090756 L36.5118608,33.4824821 L36.5118608,33.4824821 Z M4.02519366,22.1359223 L34.499264,37.0113972 L34.499264,74.7150696 L4.02519366,59.8395948 L4.02519366,22.1359223 L4.02519366,22.1359223 Z M38.5244576,74.7150696 L38.5244576,37.0113972 L52.8306668,30.021106 L52.8306668,39.8818067 C52.8306668,40.9962009 53.7363353,41.907978 54.8432636,41.907978 C55.9501918,41.907978 56.8558604,40.9962009 56.8558604,39.8818067 L56.8558604,28.0455889 L69.0991578,22.0683833 L69.0991578,59.7720557 L38.5244576,74.7150696 L38.5244576,74.7150696 Z" id="3" fill="#FFFFFF"></path>
    </g>
</svg>