<?xml version="1.0" encoding="UTF-8"?>
<svg width="80px" height="69px" viewBox="0 0 80 69" version="1.1" xmlns="http://www.w3.org/2000/svg" xmlns:xlink="http://www.w3.org/1999/xlink">
    <!-- Generator: Sketch 48.1 (47250) - http://www.bohemiancoding.com/sketch -->
    <title>2</title>
    <desc>Created with Sketch.</desc>
    <defs></defs>
    <g id="微信端" stroke="none" stroke-width="1" fill="none" fill-rule="evenodd">
        <path d="M75.5209188,30.0071685 L73.6177194,30.0071685 L73.6177194,18.5154122 C73.6177194,13.8164875 69.8113208,10.0078853 65.1517637,10.0078853 L63.3962264,10.0078853 L63.4126333,5.73763441 C63.4126333,2.57204301 60.8531583,0 57.7030353,0 L6.94011485,0 C3.15012305,0 0.0492206727,3.06666667 0,6.87526882 L0,6.97419355 L0,63.2623656 C0,66.427957 2.55947498,69 5.70959803,69 L65.1681706,69 C69.8441345,69 73.6341263,65.1749104 73.6341263,60.4924731 L73.6341263,48.9842294 L75.5373257,48.9842294 C77.9983593,48.9842294 80,46.9727599 80,44.4996416 L80,34.4917563 C79.9835931,32.018638 77.9819524,30.0071685 75.5209188,30.0071685 L75.5209188,30.0071685 Z M6.94011485,3.95698925 L57.7030353,3.95698925 C58.6710418,3.95698925 59.4749795,4.7483871 59.4749795,5.72114695 L59.4585726,10.0078853 L6.94011485,10.0078853 C5.28301887,10.0078853 3.93765381,8.65591398 3.93765381,6.990681 C3.93765381,5.32544803 5.28301887,3.95698925 6.94011485,3.95698925 L6.94011485,3.95698925 Z M69.6800656,60.4759857 C69.6800656,62.9820789 67.6456112,65.0265233 65.1517637,65.0265233 L5.69319114,65.0265233 C4.72518458,65.0265233 3.92124692,64.2351254 3.92124692,63.2458781 L3.92124692,13.2724014 C4.84003281,13.7175627 5.85726005,13.9648746 6.94011485,13.9648746 L65.1517637,13.9648746 C67.6456112,13.9648746 69.6800656,16.009319 69.6800656,18.5154122 L69.6800656,30.0071685 L56.242822,30.0071685 C53.7817884,30.0071685 51.7801477,32.018638 51.7801477,34.4917563 L51.7801477,44.4996416 C51.7801477,46.9727599 53.7817884,48.9842294 56.242822,48.9842294 L69.6800656,48.9842294 L69.6800656,60.4759857 L69.6800656,60.4759857 Z M76.0459393,44.4996416 C76.0459393,44.7964158 75.8162428,45.0272401 75.5209188,45.0272401 L56.2592289,45.0272401 C55.9639048,45.0272401 55.7342084,44.7964158 55.7342084,44.4996416 L55.7342084,34.4917563 C55.7342084,34.2114695 55.9639048,33.9641577 56.2592289,33.9641577 L75.5209188,33.9641577 C75.7998359,33.9641577 76.0459393,34.1949821 76.0459393,34.4917563 L76.0459393,44.4996416 L76.0459393,44.4996416 L76.0459393,44.4996416 Z" id="2" fill="#FFFFFF"></path>
    </g>
</svg>