<?xml version="1.0" encoding="UTF-8"?>
<svg width="64px" height="80px" viewBox="0 0 64 80" version="1.1" xmlns="http://www.w3.org/2000/svg" xmlns:xlink="http://www.w3.org/1999/xlink">
    <!-- Generator: Sketch 48.1 (47250) - http://www.bohemiancoding.com/sketch -->
    <title>1</title>
    <desc>Created with Sketch.</desc>
    <defs></defs>
    <g id="微信端" stroke="none" stroke-width="1" fill="none" fill-rule="evenodd">
        <path d="M64,69.3355413 L64,69.5176982 C64,75.29704 58.6777202,80 52.1450777,80 L11.8549223,80 C5.32227979,80 0,75.29704 0,69.5176982 L0,69.3355413 L4.60932642,17.4539433 C4.70880829,16.4272407 5.57098446,15.648934 6.59896373,15.648934 L16.3150259,15.648934 C16.3316062,7.02132064 23.361658,0 32,0 C40.638342,0 47.6683938,7.02132064 47.6849741,15.648934 L57.4010363,15.648934 C58.4455959,15.648934 59.307772,16.4272407 59.3906736,17.4539433 L64,69.3355413 Z M32,3.97433244 C25.5502591,3.97433244 20.3108808,9.20720348 20.2943005,15.648934 L43.7056995,15.648934 C43.6891192,9.20720348 38.4497409,3.97433244 32,3.97433244 Z M38.4331606,52.7758228 C39.2124352,51.997516 40.4725389,51.997516 41.2518135,52.7592631 C42.0310881,53.5375699 42.0310881,54.7961085 41.2518135,55.5744152 L33.3927461,63.4237218 C32.9948187,63.8045953 32.4974093,64.0033119 31.9834197,64.0033119 C31.4694301,64.0033119 30.9554404,63.8045953 30.5740933,63.4237218 L22.7481865,55.6075347 C21.9689119,54.8292279 21.9689119,53.5706893 22.7481865,52.7923825 C23.5274611,52.0140758 24.7875648,52.0140758 25.5668394,52.7923825 L30.0103627,57.2303871 L30.0103627,38.5510246 C30.0103627,37.4580832 30.9056995,36.5638584 32,36.5638584 C33.0943005,36.5638584 33.9896373,37.4580832 33.9896373,38.5510246 L33.9896373,57.2138274 L38.4331606,52.7758228 Z M52.1450777,76.0091078 C56.4559585,76.0091078 59.9709845,73.1442765 60.0207254,69.6004968 L55.5772021,19.6232664 L47.6849741,19.6232664 L47.6849741,26.5949079 C47.6849741,27.6878493 46.7896373,28.5820741 45.6953368,28.5820741 C44.6010363,28.5820741 43.7056995,27.6878493 43.7056995,26.5949079 L43.7056995,19.6232664 L20.2943005,19.6232664 L20.2943005,26.5949079 C20.2943005,27.6878493 19.3989637,28.5820741 18.3046632,28.5820741 C17.2103627,28.5820741 16.3150259,27.6878493 16.3150259,26.5949079 L16.3150259,19.6232664 L8.42279793,19.6232664 L3.97927461,69.5839371 C4.02901554,73.1442765 7.54404145,76.0091078 11.8549223,76.0091078 L52.1450777,76.0091078 Z" id="1" fill="#FFFFFF"></path>
    </g>
</svg>