<?xml version="1.0" encoding="UTF-8"?>
<svg width="31px" height="32px" viewBox="0 0 31 32" version="1.1" xmlns="http://www.w3.org/2000/svg" xmlns:xlink="http://www.w3.org/1999/xlink">
    <!-- Generator: Sketch 48.1 (47250) - http://www.bohemiancoding.com/sketch -->
    <title>Shape Copy</title>
    <desc>Created with Sketch.</desc>
    <defs></defs>
    <g id="个人中心" stroke="none" stroke-width="1" fill="none" fill-rule="evenodd" transform="translate(-565.000000, -1162.000000)">
        <g id="Group-12" transform="translate(546.000000, 1148.000000)" stroke="#3C90EF" stroke-width="2">
            <g id="Group-11" transform="translate(20.000000, 13.000000)">
                <path d="M23.1694737,20.4626316 C20.5776316,20.4215789 18.3734211,22.0905263 17.6044737,24.4155263 C17.3771053,25.1031579 16.5528947,25.3810526 15.9292105,25.0123684 C12.1847368,22.7994737 9.06789474,19.6455263 6.87868421,15.8892105 C6.86763158,15.8710526 6.88105263,15.8465789 6.90315789,15.8465789 C9.84552632,15.8465789 12.5589474,14.0284211 13.4707895,11.2313158 C15.0339474,6.43842105 11.49,2 6.92289474,2 C5.66526316,2 4.48815789,2.33473684 3.47289474,2.92368421 C1.52289474,4.05421053 0.172894737,6.08473684 0.0110526316,8.45 C0,8.6 0,8.76184211 0,8.92368421 C0,9.16605263 0.0110526316,9.39657895 0.0339473684,9.62710526 C0.415263158,22.0423684 10.5686842,32 23.0763158,32 C23.2263158,32 23.3652632,32 23.5152632,31.9889474 C25.6957895,31.8160526 27.5415789,30.4423684 28.3728947,28.5271053 C28.6871053,27.7897368 28.8623684,26.9765789 28.845,26.1136842 C28.7834211,23.0757895 26.2073684,20.51 23.1694737,20.4626316 L23.1694737,20.4626316 Z" id="Shape-Copy"></path>
            </g>
        </g>
    </g>
</svg>