<?xml version="1.0" encoding="UTF-8"?>
<svg width="40px" height="40px" viewBox="0 0 40 40" version="1.1" xmlns="http://www.w3.org/2000/svg" xmlns:xlink="http://www.w3.org/1999/xlink">
    <!-- Generator: Sketch 48.1 (47250) - http://www.bohemiancoding.com/sketch -->
    <title>nav_icon_user_pressed</title>
    <desc>Created with Sketch.</desc>
    <defs></defs>
    <g id="微信端" stroke="none" stroke-width="1" fill="none" fill-rule="evenodd">
        <g id="nav_icon_user_pressed" transform="translate(1.000000, 1.000000)" fill="#3C90EF">
            <g id="Group-Copy-2">
                <path d="M35.237,38 C37.177,38 38.484,36.068 37.83,34.242 C35.822,28.632 31.302,24.225 25.625,22.362" id="Shape" stroke="#3C90EF" stroke-width="2" stroke-linecap="round"></path>
                <path d="M12.375,22.363 C6.698,24.226 2.178,28.633 0.17,34.243 C-0.484,36.069 0.823,38.001 2.763,38.001" id="Shape" stroke="#3C90EF" stroke-width="2" stroke-linecap="round"></path>
                <path d="M31,12 C31,18.627 25.627,24 19,24 C12.373,24 7,18.627 7,12 C7,5.373 12.373,0 19,0 C25.627,0 31,5.373 31,12 L31,12 Z" id="Shape" stroke="#3C90EF" stroke-width="2" stroke-linecap="round"></path>
                <polygon id="Path-3" points="2 39 36 39 28 24.125 25 23.0625 12 22 10 24.125"></polygon>
            </g>
        </g>
    </g>
</svg>